<svg width="64" height="37" viewBox="0 0 64 37" fill="none" xmlns="http://www.w3.org/2000/svg">
<g clip-path="url(#clip0_8987_1810)">
<path d="M21.9725 23.2324H28.856C29.6943 23.2315 30.5097 23.5089 31.1766 24.0217C31.8435 24.5345 32.3249 25.2544 32.5467 26.0706C33.1449 28.261 31.655 30.5557 29.4294 30.8572C29.2307 30.8836 29.0305 30.8965 28.8301 30.8958C24.4812 30.8958 20.1313 30.8864 15.7824 30.9072C15.0012 30.9072 14.3358 30.6986 13.7675 30.1771C13.7452 30.1614 13.7217 30.1474 13.6973 30.1354C13.6973 30.2188 13.689 30.2887 13.6869 30.3596C13.6766 30.9124 13.7024 31.4694 13.6498 32.0191C13.5123 33.4794 12.7508 34.4974 11.4303 35.0857C10.9974 35.2787 10.548 35.432 10.1047 35.5989C9.80403 35.7115 9.57465 35.6104 9.45789 35.3131C9.33252 34.9946 9.21198 34.674 9.09625 34.3514C8.99293 34.0604 9.09626 33.8299 9.38246 33.7172C9.74203 33.5743 10.0985 33.4189 10.4653 33.3C11.2919 33.033 11.7589 32.3373 11.6732 31.3495C11.667 31.2754 11.6639 31.2014 11.6639 31.1273C11.6639 28.9863 11.6639 26.8449 11.6639 24.7031C11.6639 24.2598 11.8147 24.1055 12.2507 24.1034C12.5514 24.1034 12.8531 24.1034 13.1538 24.1034C13.5258 24.1107 13.6838 24.2807 13.6849 24.6583C13.6849 25.4927 13.6776 26.3199 13.6921 27.1501C13.7066 28.0409 14.5094 28.8461 15.3877 28.8493C17.7765 28.8576 20.165 28.8608 22.5532 28.8587C24.6472 28.8587 26.7416 28.8587 28.8363 28.8587C29.7786 28.8587 30.5143 28.1796 30.6259 27.2086C30.7241 26.3553 30.1351 25.5397 29.261 25.3311C29.0981 25.2952 28.9317 25.2784 28.765 25.281C25.4662 25.281 22.1674 25.281 18.8687 25.281C18.7817 25.2827 18.6948 25.2792 18.6083 25.2706C18.4964 25.2654 18.3908 25.2167 18.3137 25.1346C18.2366 25.0525 18.1941 24.9435 18.195 24.8304C18.1867 24.3777 18.195 23.925 18.195 23.4744C18.195 23.2658 18.3252 23.1354 18.4967 23.0322C20.03 22.1011 21.5623 21.1682 23.0936 20.2336L24.9782 19.0863C25.3192 18.8777 25.5393 18.9277 25.7593 19.2573C25.9123 19.4868 26.0693 19.7152 26.2171 19.9458C26.4154 20.2503 26.3586 20.5059 26.0476 20.6957L22.143 23.0874C22.081 23.125 22.0221 23.1667 21.9611 23.2063L21.9725 23.2324Z" fill="#35306A"/>
<path d="M16.4698 10.7688C15.9153 11.4418 15.1425 11.8949 14.2887 12.0476C13.3866 12.2093 12.6169 11.9537 11.9215 11.2883C11.9215 11.8098 11.9298 12.2812 11.9215 12.7485C11.8822 14.382 11.0029 15.6461 9.50578 16.2282C9.13278 16.3732 8.75978 16.5192 8.38471 16.661C8.04065 16.7914 7.8123 16.6913 7.68211 16.3481C7.57121 16.0595 7.46238 15.7703 7.35561 15.4803C7.22439 15.1246 7.32461 14.9004 7.67798 14.7627C8.07578 14.6083 8.47771 14.4623 8.87344 14.3027C9.2017 14.1778 9.48043 13.9479 9.66702 13.648C9.8536 13.3482 9.93778 12.9949 9.90668 12.6421C9.90668 12.5816 9.90668 12.5201 9.90668 12.4596C9.90668 10.2845 9.90668 8.10903 9.90668 5.93322C9.90668 5.43568 10.0482 5.2907 10.5359 5.28965C10.8242 5.28965 11.1114 5.28965 11.3987 5.28965C11.7706 5.29695 11.9318 5.46801 11.9318 5.84351C11.9318 6.64041 11.9318 7.43765 11.9318 8.23524C11.9256 8.68572 12.0878 9.12202 12.3862 9.45706C12.6845 9.79209 13.0971 10.0012 13.5415 10.0427C13.9859 10.0842 14.4294 9.95495 14.7836 9.68081C15.1377 9.40668 15.3764 9.00781 15.4521 8.5638C15.4782 8.39127 15.4893 8.21676 15.4851 8.04227C15.4851 7.30588 15.4851 6.56948 15.4851 5.83308C15.4851 5.46697 15.6432 5.30008 16.0018 5.29278C16.3231 5.28652 16.6444 5.28548 16.9658 5.29278C17.3181 5.30217 17.4721 5.46906 17.4721 5.82474C17.4721 6.61538 17.4721 7.40601 17.4721 8.1956C17.4721 9.06134 17.999 9.77062 18.7957 9.9834C18.9372 10.0221 19.083 10.0424 19.2296 10.0439C22.4616 10.0439 25.6939 10.0439 28.9266 10.0439C29.3747 10.0333 29.8018 9.85007 30.1205 9.53185C30.4392 9.21364 30.6253 8.78447 30.6407 8.33224C30.649 7.51449 30.6407 6.69778 30.6407 5.88002C30.6407 5.47114 30.8061 5.30008 31.209 5.29591C31.519 5.29591 31.8383 5.2907 32.1524 5.29591C32.5285 5.30321 32.6824 5.46697 32.6824 5.84664C32.6824 6.67066 32.6824 7.49502 32.6824 8.31973C32.6824 10.1545 31.2627 11.8025 29.4639 12.0434C29.192 12.0757 28.9183 12.09 28.6445 12.0862C25.5193 12.0862 22.3941 12.0862 19.2689 12.0862C18.7696 12.0928 18.2746 11.9927 17.8164 11.7924C17.3582 11.5922 16.9472 11.2963 16.6104 10.9242C16.567 10.8804 16.5246 10.8304 16.4698 10.7688Z" fill="#35306A"/>
<path d="M5.42112 12.2823H3.87126C2.94029 12.3008 2.03539 11.9713 1.33052 11.3571C0.47913 10.6165 0.0482688 9.67044 0.00383946 8.54081C-0.0343905 7.57912 0.177424 6.68939 0.768438 5.92066C1.50824 4.95896 2.48569 4.43639 3.69664 4.41031C4.74642 4.38737 5.79619 4.39467 6.847 4.39154C7.26029 4.39154 7.42768 4.55843 7.42768 4.98087C7.42768 7.57529 7.42768 10.1694 7.42768 12.7631C7.43401 13.508 7.21447 14.2369 6.79855 14.8522C6.38262 15.4675 5.79021 15.9396 5.10082 16.2052C4.69717 16.3637 4.29248 16.5191 3.88676 16.6714C3.54579 16.7997 3.32158 16.6933 3.19036 16.3491C3.07773 16.0539 2.96511 15.7588 2.85559 15.4625C2.74606 15.1663 2.83905 14.9201 3.14489 14.7971C3.54166 14.6385 3.94049 14.4841 4.33829 14.3319C4.66296 14.2181 4.94318 14.0026 5.13813 13.7169C5.33308 13.4312 5.43258 13.0901 5.42216 12.7433C5.42112 12.5952 5.42112 12.4544 5.42112 12.2823ZM5.41389 6.44845C4.82494 6.44845 4.25563 6.42133 3.69044 6.45992C3.39991 6.48259 3.11779 6.56909 2.86385 6.71338C2.18295 7.10557 1.88434 7.867 2.03003 8.70457C2.19224 9.64332 2.88142 10.2253 3.81753 10.2264H5.41389V6.44845Z" fill="#35306A"/>
<path d="M2.11447 30.8977C1.65984 30.8977 1.20521 30.8977 0.749555 30.8977C0.439582 30.8977 0.256698 30.7266 0.247399 30.4168C0.237067 30.059 0.236034 29.7013 0.247399 29.3435C0.257732 29.0358 0.443715 28.8637 0.751621 28.8627C1.56788 28.8627 2.38414 28.8627 3.19937 28.8627C4.04973 28.8627 4.79986 28.2859 4.97138 27.5067C5.18836 26.5158 4.81743 25.6188 4.00013 25.2537C3.73817 25.1423 3.45773 25.0817 3.17354 25.0753C2.37794 25.0524 1.58235 25.068 0.785718 25.067C0.425117 25.067 0.254632 24.9011 0.250499 24.5402C0.246366 24.2162 0.246366 23.8922 0.250499 23.5681C0.250499 23.2114 0.433382 23.0372 0.784684 23.0372H3.33266C5.03337 23.0372 6.63903 24.3723 6.94384 26.0621C7.16392 27.2783 7.01306 28.4319 6.2278 29.4311C5.88556 29.8875 5.4435 30.2579 4.9361 30.5133C4.42871 30.7688 3.8697 30.9025 3.30269 30.9039C2.90386 30.905 2.50916 30.8977 2.11447 30.8977Z" fill="#35306A"/>
<path d="M8.15625 24.781C8.15625 22.9438 8.15625 21.1067 8.15625 19.2695C8.15625 18.8241 8.32054 18.6572 8.75863 18.6562C9.0686 18.6562 9.37858 18.6562 9.68235 18.6562C9.74957 18.6511 9.81709 18.6605 9.88046 18.6837C9.94382 18.7069 10.0016 18.7434 10.0499 18.7908C10.0983 18.8383 10.1361 18.8955 10.1609 18.9588C10.1857 19.0221 10.1969 19.0899 10.1938 19.1579C10.1938 19.1913 10.1938 19.2257 10.1938 19.2622C10.1938 22.9435 10.1921 26.6248 10.1886 30.3061C10.1872 30.465 10.1401 30.62 10.0533 30.7525C9.96528 30.8415 9.84617 30.8921 9.72161 30.8933C9.38167 30.911 9.03967 30.9006 8.6987 30.8996C8.33087 30.8996 8.15935 30.7285 8.15832 30.3561C8.15832 29.4716 8.15832 28.5829 8.15832 27.7016C8.15694 26.7274 8.15625 25.7538 8.15625 24.781Z" fill="#35306A"/>
<path d="M29.2758 13.9906H30.8618C31.1976 13.9906 31.3692 14.1471 31.3919 14.485C31.4012 14.6259 31.3919 14.7688 31.3919 14.9106C31.3919 15.5521 31.3919 16.1946 31.3919 16.8361C31.3919 17.197 31.2348 17.4703 30.7988 17.4379C30.5725 17.4212 30.3442 17.4379 30.1169 17.4379C30.0566 17.4408 29.9963 17.4309 29.9401 17.4088C29.8838 17.3867 29.8327 17.3529 29.7902 17.3097C29.7476 17.2664 29.7145 17.2146 29.693 17.1577C29.6715 17.1007 29.6621 17.0399 29.6653 16.979C29.6653 16.7151 29.6653 16.4523 29.6653 16.1884C29.6602 15.8348 29.4783 15.6554 29.1291 15.6554H27.6898C27.3447 15.6554 27.1732 15.4843 27.1732 15.1338C27.1732 14.9106 27.167 14.6874 27.1732 14.4652C27.1825 14.1638 27.3571 13.9959 27.6578 13.9948C28.1919 13.9896 28.7334 13.9906 29.2758 13.9906Z" fill="#35306A"/>
<path d="M15.6022 2.74043C15.0804 2.74043 14.5586 2.74043 14.0368 2.74043C13.6638 2.74043 13.5005 2.57042 13.4995 2.19283C13.4995 1.98422 13.4995 1.77561 13.4995 1.567C13.4995 1.24678 13.6814 1.0632 13.9944 1.0632C15.0718 1.0632 16.1487 1.0632 17.2254 1.0632C17.5405 1.0632 17.711 1.23322 17.7141 1.54614C17.7141 1.78256 17.7141 2.01899 17.7141 2.25541C17.7141 2.56833 17.5457 2.73835 17.2274 2.74148C16.684 2.74461 16.1425 2.74043 15.6022 2.74043Z" fill="#35306A"/>
<path d="M40.3103 23.829C40.4416 24.533 40.5356 25.3706 40.7598 26.1717C41.2506 27.9 42.2398 29.4417 43.6014 30.6006C44.963 31.7595 46.6354 32.4831 48.4058 32.6793C53.2104 33.2008 57.5386 29.9288 58.3497 25.1484C58.7537 22.7661 58.1833 20.5976 56.9858 18.5282C54.506 14.237 52.0748 9.9115 49.6136 5.60681C49.4597 5.3377 49.4731 5.15204 49.6271 4.8871C50.465 3.44977 51.2803 1.99889 52.1306 0.500015C52.4303 1.02154 52.7103 1.50865 52.9872 1.99576C56.1675 7.58862 59.3747 13.1658 62.5188 18.7785C65.7518 24.5487 63.4901 32.0722 57.6626 35.1284C55.4098 36.3229 52.8366 36.7559 50.3219 36.3634C47.8071 35.971 45.4835 34.7739 43.6932 32.9484C41.3043 30.5129 39.9859 26.882 40.3103 23.829Z" fill="#35306A"/>
<path d="M42.5612 23.2948C42.5137 22.0952 42.7716 20.9033 43.3103 19.8329C44.3126 17.8594 45.8056 16.4659 48.0694 16.1457C49.641 15.9225 51.1888 16.0414 52.6074 16.832C53.1323 17.122 53.5921 17.5392 54.0602 17.9251C54.3236 18.1431 54.3898 18.4362 54.2038 18.7596C53.7739 19.5106 53.3576 20.2699 52.9195 21.0168C52.7541 21.2984 52.5971 21.2869 52.3295 21.0439C51.7281 20.4963 51.1092 19.9581 50.2909 19.7922C48.5643 19.4428 47.2325 20.0436 46.6198 21.8032C46.1714 23.0904 46.2685 24.3879 47.0662 25.5374C47.6096 26.3197 48.3484 26.7723 49.3568 26.789C50.4686 26.8057 51.3727 26.3989 52.1745 25.6719C52.5465 25.335 52.6581 25.3308 52.9484 25.7501C53.3834 26.376 53.7812 27.0341 54.2079 27.6683C54.4011 27.9552 54.2813 28.1794 54.1046 28.3891C53.2129 29.4394 52.1094 30.1821 50.7507 30.3844C48.6759 30.6974 46.6993 30.4606 45.0162 29.0107C43.6513 27.8342 42.8846 26.3447 42.6583 24.5621C42.6067 24.1407 42.5932 23.7162 42.5612 23.2948Z" fill="#F3703A"/>
</g>
<defs>
<clipPath id="clip0_8987_1810">
<rect width="64" height="36" fill="white" transform="translate(0 0.5)"/>
</clipPath>
</defs>
</svg>
